<svg xmlns="http://www.w3.org/2000/svg" viewBox="0 0 100 100">
  <defs>
    <linearGradient id="grad" x1="0%" y1="0%" x2="100%" y2="100%">
      <stop offset="0%" style="stop-color:#22c55e;stop-opacity:1" />
      <stop offset="100%" style="stop-color:#16a34a;stop-opacity:1" />
    </linearGradient>
  </defs>
  <circle cx="50" cy="50" r="45" fill="url(#grad)"/>
  <path d="M50 20 C35 20 25 35 25 50 C25 70 40 85 50 85 C60 85 75 70 75 50 C75 35 65 20 50 20" fill="#fff" opacity="0.9"/>
  <path d="M50 25 C47 25 45 27 45 30 L45 45 C45 47 47 49 50 49 C53 49 55 47 55 45 L55 30 C55 27 53 25 50 25" fill="#22c55e"/>
  <ellipse cx="50" cy="28" rx="3" ry="5" fill="#166534"/>
</svg>
